<?xml version="1.0" standalone="no"?>
<!DOCTYPE svg PUBLIC "-//W3C//DTD SVG 20010904//EN"
 "http://www.w3.org/TR/2001/REC-SVG-20010904/DTD/svg10.dtd">
<svg version="1.0" xmlns="http://www.w3.org/2000/svg"
 width="244.000000pt" height="207.000000pt" viewBox="0 0 244.000000 207.000000"
 preserveAspectRatio="xMidYMid meet">

<g transform="translate(0.000000,207.000000) scale(0.100000,-0.100000)"
fill="#000000" stroke="none">
<path d="M959 2019 c-167 -117 -250 -148 -341 -129 -32 7 -58 17 -58 21 0 5
-7 9 -15 9 -15 0 -45 15 -74 37 -107 80 -157 111 -166 101 -3 -2 -8 -30 -11
-61 -8 -69 -77 -290 -93 -295 -6 -2 -43 11 -81 29 -66 30 -100 31 -82 3 8 -12
94 -54 111 -54 17 0 51 -38 51 -56 0 -18 -7 -18 -123 15 -60 16 -69 17 -74 4
-8 -20 8 -28 85 -48 100 -25 132 -41 132 -66 0 -19 -4 -21 -33 -15 -79 16
-137 18 -152 6 -24 -20 -9 -28 67 -34 139 -13 144 -14 192 -64 46 -47 88 -73
179 -112 37 -15 47 -24 43 -37 -5 -20 -8 -77 -7 -135 1 -20 8 -43 16 -52 19
-19 19 -43 -1 -136 -13 -58 -17 -123 -15 -290 0 -118 4 -242 6 -275 6 -60 -8
-211 -19 -222 -3 -4 -16 3 -29 15 -13 12 -33 22 -45 22 -47 0 -70 -111 -32
-160 16 -22 26 -25 77 -23 52 2 61 5 89 36 39 42 53 113 55 285 1 122 12 166
24 95 23 -140 49 -197 123 -269 l40 -38 -29 -18 c-23 -14 -29 -25 -29 -52 0
-54 14 -59 158 -54 118 5 217 25 232 48 3 4 15 12 27 18 20 11 113 140 113
158 0 4 12 37 26 73 50 125 60 258 33 446 -13 88 -6 310 11 378 39 148 99 286
155 357 59 74 129 133 192 162 61 27 74 30 157 26 116 -4 182 -33 265 -115
100 -100 172 -230 211 -384 24 -95 36 -358 20 -463 -8 -57 -58 -226 -69 -236
-4 -3 -21 -35 -40 -72 -19 -38 -38 -68 -42 -68 -4 0 -10 -8 -13 -17 -17 -49
-126 -139 -206 -171 -62 -25 -185 -31 -235 -13 -101 38 -146 71 -225 167 -29
36 -69 61 -90 59 -8 -1 -21 -3 -27 -3 -17 -2 -16 -35 1 -75 15 -35 95 -121
166 -178 85 -69 185 -102 290 -96 97 5 116 10 190 50 144 79 252 219 330 430
38 104 69 285 69 407 1 125 -45 385 -79 448 -5 9 -19 40 -31 67 -56 125 -148
240 -243 302 -87 58 -150 77 -251 76 -145 -2 -244 -50 -359 -174 -131 -144
-209 -348 -237 -622 -10 -103 -10 -137 6 -258 20 -157 17 -268 -10 -344 -25
-73 -65 -158 -71 -152 -3 3 3 36 12 74 21 81 23 219 4 289 -26 97 -65 156
-190 288 -30 32 -64 68 -75 80 -11 12 -33 40 -49 64 -25 37 -27 46 -18 68 15
31 16 143 2 179 -8 21 -7 27 8 31 58 19 145 72 195 120 52 49 63 55 95 53 48
-4 171 11 177 21 3 4 -2 13 -10 20 -15 13 -84 10 -162 -6 -26 -5 -33 -3 -33 9
0 28 28 44 117 66 85 22 113 34 113 52 0 16 -55 9 -127 -15 -75 -25 -83 -25
-83 6 0 14 21 29 78 55 72 33 91 47 92 66 0 17 -45 3 -132 -44 -10 -5 -24 -9
-31 -9 -18 0 -84 216 -93 303 -4 37 -10 67 -14 67 -3 0 -40 -23 -81 -51z
m-471 -274 c2 -2 -1 -12 -7 -23 -6 -12 -11 -36 -11 -56 0 -35 0 -35 -32 -25
-18 6 -40 13 -48 17 -8 3 -18 6 -22 6 -31 4 -5 63 36 81 26 12 73 12 84 0z
m480 -18 c32 -30 27 -51 -16 -70 -69 -30 -76 -27 -86 50 -5 38 -4 42 16 45 34
5 60 -2 86 -25z m-153 -63 l6 -51 -61 -21 -62 -21 5 37 c6 53 24 84 60 108 37
25 42 21 52 -52z m-243 55 c28 -12 64 -63 73 -101 6 -25 4 -28 -17 -28 -21 0
-81 23 -97 37 -6 5 -2 84 5 95 7 10 8 10 36 -3z m128 -200 c0 -19 -33 -43 -44
-32 -11 11 -6 61 7 66 17 6 37 -12 37 -34z m110 -279 c0 -6 -50 -10 -131 -10
-84 0 -128 4 -124 10 4 6 58 10 131 10 76 0 124 -4 124 -10z m-2 -56 c1 -5
-52 -10 -118 -12 -74 -2 -120 1 -120 7 0 17 233 21 238 5z m1 -49 c-11 -11
-259 -14 -259 -3 0 10 41 13 162 13 71 0 103 -3 97 -10z m11 -610 c23 -17 28
-25 17 -25 -9 0 -17 4 -17 9 0 5 -8 12 -17 16 -45 17 -63 15 -98 -16 -19 -17
-35 -26 -35 -21 0 18 64 62 91 62 14 0 40 -11 59 -25z"/>
<path d="M1809 1369 c-61 -13 -150 -50 -144 -60 4 -5 0 -7 -7 -4 -7 3 -31 -11
-52 -30 -22 -19 -37 -35 -33 -35 4 0 -7 -13 -23 -28 -61 -59 -110 -202 -110
-322 0 -188 91 -349 226 -399 30 -12 59 -19 64 -16 5 3 11 -1 13 -7 4 -8 6 -9
6 -2 1 7 -6 25 -14 40 -8 16 -15 24 -15 18 0 -7 -11 -14 -25 -16 -16 -4 -25
-1 -25 8 0 7 8 11 19 9 14 -3 18 1 14 12 -5 12 -7 12 -14 1 -7 -10 -9 -10 -9
2 -1 9 -6 6 -16 -10 -14 -23 -15 -23 -11 -3 3 13 -1 24 -10 27 -11 5 -13 2 -9
-9 3 -10 2 -13 -5 -10 -5 4 -7 14 -5 23 3 10 1 24 -5 32 -10 13 -10 13 -6 -1
3 -9 -1 -16 -9 -16 -13 0 -17 9 -11 23 1 3 -11 12 -26 20 -15 8 -25 19 -22 23
3 5 -2 11 -10 14 -9 4 -12 1 -8 -9 3 -7 -1 -14 -8 -14 -7 0 -10 3 -6 6 3 4 0
18 -7 33 -7 14 -12 34 -11 44 2 9 -1 17 -6 17 -6 0 -7 5 -3 11 5 8 10 6 16 -5
5 -9 14 -16 21 -16 7 0 6 4 -3 10 -9 6 -10 10 -3 10 7 0 17 -8 22 -17 6 -10
11 -13 11 -6 0 20 -12 43 -20 38 -5 -3 -7 2 -6 12 2 9 11 20 22 24 11 4 0 6
-28 5 -26 -1 -45 1 -42 6 3 4 -1 8 -8 8 -8 0 -9 3 -3 8 6 4 11 16 11 27 0 11
-5 23 -11 27 -6 5 -4 8 5 8 13 0 13 1 0 10 -13 9 -13 10 0 10 13 0 13 1 0 11
-12 8 -10 9 8 4 30 -8 59 2 64 23 4 12 -2 17 -20 19 -18 1 -21 -1 -11 -8 11
-7 11 -9 -3 -9 -10 0 -18 7 -18 15 0 8 -8 15 -17 16 -11 0 -7 5 10 11 21 7 32
7 40 -1 17 -17 43 -13 43 8 0 11 -5 17 -13 14 -7 -3 -13 2 -13 11 0 10 -8 16
-22 15 -14 -1 -17 -3 -8 -5 19 -6 45 -44 30 -44 -6 0 -13 7 -16 15 -4 8 -10
12 -15 9 -5 -3 -17 0 -26 5 -10 6 -13 11 -7 11 6 0 11 7 12 15 1 8 3 22 4 30
2 17 18 21 18 5 0 -5 8 -10 18 -10 14 0 15 2 2 10 -13 9 -13 10 0 10 13 0 13
1 0 10 -8 5 -10 10 -4 10 5 0 14 -4 20 -9 5 -5 22 -2 39 6 21 10 23 13 8 9
-20 -3 -21 -1 -12 15 13 26 4 39 -28 39 -32 0 -25 9 12 16 17 3 24 1 20 -6 -3
-5 1 -10 10 -10 10 0 13 -5 9 -12 -4 -7 -3 -8 5 -4 6 4 9 12 6 17 -4 5 1 9 10
9 9 0 15 6 12 13 -2 6 -16 11 -31 9 -18 -2 -25 1 -21 7 3 6 2 11 -4 11 -5 0
-12 -6 -14 -12 -4 -9 -6 -8 -6 2 -1 8 8 21 19 28 11 7 20 9 19 5 -4 -22 3 -32
17 -26 13 5 13 7 2 14 -9 6 -9 9 -1 9 6 0 15 -5 19 -11 3 -6 14 -9 24 -6 11 3
21 -2 24 -10 7 -18 -2 -35 -14 -28 -5 3 -11 1 -14 -4 -11 -17 12 -22 28 -5 9
8 16 12 16 7 0 -4 4 -3 8 2 4 6 16 15 27 22 11 6 19 16 18 22 -2 6 3 8 10 5 8
-3 27 0 43 7 16 6 45 13 64 16 37 5 70 34 70 62 0 38 -60 85 -76 59 -4 -6 -9
-6 -13 -1 -3 5 -21 6 -42 2z m53 -31 c4 1 5 -8 3 -19 -2 -11 2 -22 10 -26 15
-5 21 -33 8 -33 -20 1 -41 27 -33 40 10 16 4 30 -11 30 -6 0 -7 -5 -3 -12 5
-7 3 -8 -7 -3 -27 17 -46 12 -46 -12 0 -12 3 -20 8 -18 4 3 10 1 14 -5 3 -5
16 -10 27 -10 24 0 17 -12 -10 -17 -66 -12 -71 -12 -67 8 2 10 6 23 10 28 3 6
-3 15 -12 21 -11 7 -13 10 -3 7 8 -2 23 6 33 17 10 12 15 15 11 7 -4 -9 -2
-12 7 -9 8 3 13 11 11 17 -2 9 4 8 20 -1 13 -7 26 -11 30 -10z m33 12 c4 -6
10 -8 15 -5 10 6 7 -21 -3 -31 -4 -4 -7 -12 -7 -18 0 -6 4 -4 10 4 5 8 12 11
16 7 4 -4 3 -12 -3 -18 -8 -8 -18 -7 -34 5 -13 9 -18 16 -12 16 12 0 12 18 0
38 -5 6 -4 12 2 12 5 0 13 -5 16 -10z m-169 -58 c-4 -3 -11 0 -16 8 -9 13 -10
13 -10 0 0 -8 9 -21 20 -28 14 -8 20 -21 17 -37 -3 -26 -17 -47 -17 -25 0 10
-3 10 -16 0 -13 -12 -15 -10 -11 14 2 15 10 32 18 37 11 7 9 9 -8 9 -12 0 -25
5 -28 10 -3 6 -1 10 6 10 7 0 10 3 6 6 -3 3 -1 12 6 19 9 9 14 9 25 -2 8 -8
11 -17 8 -21z m-61 -22 c17 -19 17 -19 -8 -7 -14 6 -23 15 -21 19 7 11 9 10
29 -12z m-35 -84 c0 -2 -7 -7 -16 -10 -8 -3 -12 -2 -9 4 6 10 25 14 25 6z
m-80 -46 c-8 -6 -23 -15 -33 -21 -16 -9 -17 -8 -5 10 7 12 22 21 33 21 17 0
18 -2 5 -10z m17 -16 c-3 -3 -12 -4 -19 -1 -8 3 -5 6 6 6 11 1 17 -2 13 -5z
m-62 -194 l20 -9 -20 0 c-11 0 -27 4 -35 9 -13 9 -13 10 0 9 8 0 24 -4 35 -9z
m-16 -170 c-16 -10 -32 -3 -23 11 3 5 10 7 15 4 5 -4 9 0 10 7 0 10 2 10 6 -1
3 -7 -1 -17 -8 -21z"/>
<path d="M1767 1259 c7 -7 15 -10 18 -7 3 3 -2 9 -12 12 -14 6 -15 5 -6 -5z"/>
<path d="M1705 1240 c3 -5 11 -10 16 -10 6 0 7 5 4 10 -3 6 -11 10 -16 10 -6
0 -7 -4 -4 -10z"/>
<path d="M1957 1263 c8 -3 11 -14 7 -29 -5 -18 -2 -24 10 -24 10 0 13 -5 9
-17 -4 -11 -3 -14 5 -9 8 5 10 1 5 -10 -4 -12 -3 -15 5 -10 8 5 10 2 5 -10 -5
-14 -7 -14 -18 5 -6 12 -14 18 -19 14 -4 -4 -4 1 0 11 6 15 4 17 -6 11 -8 -5
-11 -4 -7 2 4 6 0 14 -9 17 -10 4 -14 13 -10 28 4 15 1 13 -8 -6 -9 -20 -15
-25 -19 -15 -4 8 -5 -2 -4 -21 2 -31 7 -37 48 -57 78 -37 110 -98 110 -208 0
-88 -34 -205 -62 -212 -10 -3 -19 -11 -19 -18 0 -6 -9 -20 -19 -29 -19 -17
-20 -17 -31 3 -6 12 -8 21 -4 21 3 0 0 8 -7 17 -12 15 -12 16 4 10 12 -4 16
-3 11 4 -4 8 1 9 17 5 21 -6 20 -5 -4 9 -26 15 -31 15 -65 -2 -32 -16 -37 -22
-36 -50 1 -22 11 -40 30 -56 27 -23 27 -25 8 -35 -10 -5 -33 -11 -49 -13 -67
-5 -95 2 -139 36 -61 47 -71 45 -13 -2 31 -25 42 -40 34 -45 -7 -4 4 -5 24 -2
21 4 39 2 43 -4 6 -10 63 -7 96 5 8 3 22 7 31 8 21 2 63 41 56 52 -3 5 4 10
16 10 17 2 18 0 7 -7 -11 -7 -8 -11 13 -21 20 -9 24 -15 15 -21 -10 -6 -8 -8
5 -8 9 0 17 7 17 15 0 8 5 15 10 15 13 0 13 -17 0 -25 -6 -4 -8 -11 -5 -16 8
-12 -2 -11 -26 2 -11 5 -17 14 -14 19 13 20 -42 3 -63 -20 -13 -14 -20 -19
-16 -11 5 9 3 12 -5 7 -6 -4 -9 -16 -6 -27 4 -13 2 -19 -6 -17 -8 2 -16 -10
-19 -27 -3 -17 -9 -30 -15 -30 -16 0 -35 15 -35 28 0 8 3 7 9 -2 5 -7 11 -9
13 -5 3 5 3 3 1 -4 -1 -7 2 -10 8 -6 6 3 9 14 6 24 -2 9 0 24 4 33 7 12 5 14
-11 10 -11 -3 -20 -10 -20 -15 0 -5 4 -6 10 -3 6 3 7 -1 4 -9 -3 -9 -10 -13
-15 -10 -5 3 -13 -5 -18 -18 -6 -13 -10 -16 -10 -8 -1 8 -10 21 -22 28 -12 8
-18 9 -14 3 3 -6 2 -11 -3 -11 -6 0 -12 7 -16 15 -3 8 -10 15 -16 15 -27 0 6
-78 37 -86 31 -8 131 15 183 42 25 13 39 23 33 24 -7 0 -13 5 -13 11 0 6 23
-8 52 -31 42 -33 58 -40 87 -38 19 2 37 9 39 17 3 9 0 11 -8 6 -9 -6 -12 -4
-8 6 3 8 0 28 -8 44 -8 17 -11 20 -8 8 2 -12 -1 -25 -7 -29 -8 -4 -9 -3 -5 4
4 7 3 19 -2 28 -16 28 -25 -4 -11 -37 9 -22 14 -27 20 -17 6 9 9 9 9 1 0 -19
-20 -26 -26 -9 -3 9 -10 13 -15 10 -5 -3 -6 3 -3 13 5 16 3 15 -12 -2 -16 -19
-16 -15 1 28 9 22 -14 20 -32 -3 -7 -8 -5 3 4 26 10 23 26 45 37 50 21 10 82
111 72 121 -3 3 -10 -6 -15 -21 -6 -14 -15 -26 -21 -26 -6 0 -9 -4 -6 -8 6
-11 -22 -52 -35 -52 -6 0 -8 4 -5 9 3 4 -6 13 -21 20 -20 9 -28 9 -34 0 -5 -8
-10 -5 -18 10 -8 15 -8 21 -1 21 6 0 18 16 26 35 8 19 19 35 25 35 7 0 6 -6
-2 -17 -8 -9 -9 -14 -3 -10 7 4 14 -1 17 -13 3 -11 13 -18 24 -17 25 1 26 27
2 27 -10 0 -21 5 -25 12 -4 7 -3 8 4 4 7 -4 17 -4 23 0 8 4 7 9 -2 15 -11 7
-11 9 1 9 13 0 13 1 0 11 -12 9 -11 10 8 6 12 -3 22 -1 22 4 0 4 8 6 18 3 16
-5 16 -5 0 5 -10 7 -25 8 -40 2 -26 -9 -51 -4 -42 10 3 5 17 7 32 4 20 -4 22
-3 8 3 -21 9 -31 42 -13 42 8 0 7 4 -2 9 -11 7 -10 11 7 20 26 14 54 15 32 1
-13 -8 -12 -10 3 -10 9 0 17 7 17 16 0 13 -7 15 -30 11 -22 -5 -28 -3 -24 7 3
8 14 12 24 9 10 -3 27 0 37 6 15 10 14 11 -12 9 -20 -2 -30 2 -30 11 0 8 -9
17 -20 21 -16 6 -13 9 20 16 22 4 43 7 48 6 11 -3 8 26 -3 33 -6 4 -9 1 -8 -6
3 -13 -39 -28 -60 -21 -9 3 -5 9 10 16 27 13 38 56 14 56 -8 0 -18 -4 -21 -10
-3 -5 -12 -10 -18 -10 -8 0 -7 3 2 9 11 7 11 10 -2 17 -16 9 -17 11 -17 44 0
11 -5 20 -11 20 -5 0 -7 -5 -3 -12 5 -7 3 -8 -5 -3 -21 13 4 29 26 16 10 -6
14 -11 9 -11 -5 0 -3 -7 4 -15 6 -8 10 -18 7 -22 -3 -4 6 -9 20 -10 15 0 22 2
17 5 -5 4 -10 15 -12 26 -3 14 1 17 12 13 14 -5 15 -3 6 13 -6 11 -15 20 -20
20 -4 0 -16 3 -26 7 -12 4 -15 3 -10 -5 5 -8 2 -10 -9 -6 -13 5 -13 9 -3 23 7
9 8 13 4 9 -5 -4 -14 -1 -21 8 -9 14 -11 12 -11 -12 1 -15 -5 -29 -12 -32 -11
-3 -12 0 -3 17 12 22 3 52 -15 53 -23 1 -31 11 -26 34 3 19 0 24 -14 23 -11 0
-14 -3 -7 -6z m163 -127 c0 -2 -6 -9 -13 -15 -10 -8 -14 -7 -14 4 0 8 6 15 14
15 7 0 13 -2 13 -4z m-10 -116 c0 -5 -7 -10 -15 -10 -8 0 -15 5 -15 10 0 6 7
10 15 10 8 0 15 -4 15 -10z m-24 -263 c2 -13 -1 -14 -16 -4 -10 6 -16 15 -13
20 8 13 26 3 29 -16z m-174 -19 c-9 -9 -9 -15 0 -25 9 -11 6 -13 -15 -9 -19 3
-24 1 -20 -10 3 -8 9 -14 15 -14 5 0 6 4 3 10 -3 6 1 7 10 3 12 -4 13 -8 5
-13 -8 -5 -4 -9 9 -13 27 -7 27 -24 1 -32 -25 -8 -43 3 -36 21 3 8 -1 17 -8
20 -14 6 -15 16 -1 46 4 10 11 16 15 13 5 -3 11 -1 15 5 3 5 9 10 13 10 3 0 1
-5 -6 -12z m57 -165 c-1 -5 0 -10 1 -13 12 -32 0 -55 -15 -30 -3 6 -1 10 6 10
8 0 9 3 0 13 -6 8 -8 17 -4 20 8 9 13 9 12 0z m71 -23 c0 -5 -5 -10 -11 -10
-5 0 -7 5 -4 10 3 6 8 10 11 10 2 0 4 -4 4 -10z m-93 -7 c-4 -3 -1 -14 7 -22
13 -15 11 -18 -20 -27 -33 -11 -34 -10 -34 14 0 24 1 25 13 7 11 -14 16 -15
22 -5 5 9 4 11 -3 6 -14 -8 -15 -4 -6 18 3 9 11 16 17 16 6 0 7 -3 4 -7z
m-184 -33 c3 -11 1 -18 -4 -14 -5 3 -9 12 -9 20 0 20 7 17 13 -6z"/>
<path d="M2048 1234 c23 -14 42 -30 42 -34 0 -4 7 -11 15 -14 30 -11 -18 42
-53 58 -50 24 -52 18 -4 -10z"/>
<path d="M2130 1160 c0 -5 5 -10 11 -10 5 0 7 5 4 10 -3 6 -8 10 -11 10 -2 0
-4 -4 -4 -10z"/>
<path d="M1633 1136 c1 -35 -4 -57 -11 -52 -5 3 -9 0 -10 -7 0 -7 -3 -23 -7
-37 -3 -14 5 -4 17 21 13 25 29 53 36 61 10 13 9 16 -6 20 -11 3 -19 0 -19 -6z"/>
<path d="M2166 1107 c3 -10 9 -15 12 -12 3 3 0 11 -7 18 -10 9 -11 8 -5 -6z"/>
<path d="M1540 1050 l-35 -7 32 -2 c17 0 35 4 38 9 3 6 5 9 3 9 -2 -1 -19 -5
-38 -9z"/>
<path d="M2192 1030 c0 -14 2 -19 5 -12 2 6 2 18 0 25 -3 6 -5 1 -5 -13z"/>
<path d="M1589 1005 c-3 -5 -6 -28 -7 -50 l-1 -40 10 33 c10 34 8 76 -2 57z"/>
<path d="M2199 993 c-4 -66 -2 -143 4 -143 4 0 7 34 7 75 0 41 -2 75 -5 75 -3
0 -5 -3 -6 -7z"/>
<path d="M2118 963 c7 -3 16 -2 19 1 4 3 -2 6 -13 5 -11 0 -14 -3 -6 -6z"/>
<path d="M1486 885 c4 -8 14 -15 23 -15 13 0 13 2 2 9 -11 7 -11 9 0 14 8 3 5
6 -8 6 -16 1 -21 -3 -17 -14z"/>
<path d="M1538 863 c7 -3 16 -2 19 1 4 3 -2 6 -13 5 -11 0 -14 -3 -6 -6z"/>
<path d="M2103 855 c0 -10 6 -14 14 -10 8 3 20 5 26 6 7 0 3 4 -8 9 -29 12
-32 12 -32 -5z"/>
<path d="M1495 850 l20 -9 -20 -1 c-19 -1 -18 -2 3 -10 12 -5 22 -11 22 -14 0
-2 -10 -2 -22 0 -21 4 -21 4 -3 -4 11 -5 28 -7 38 -4 17 4 17 5 0 18 -10 7
-13 14 -8 14 6 0 3 5 -5 10 -8 5 -22 9 -30 9 -10 0 -8 -3 5 -9z"/>
<path d="M2106 831 c-19 -7 -19 -8 2 -13 31 -8 68 2 50 13 -15 10 -26 10 -52
0z"/>
<path d="M2191 824 c0 -11 3 -14 6 -6 3 7 2 16 -1 19 -3 4 -6 -2 -5 -13z"/>
<path d="M1582 810 c0 -14 2 -19 5 -12 2 6 2 18 0 25 -3 6 -5 1 -5 -13z"/>
<path d="M2176 774 c-4 -14 -5 -28 -3 -31 3 -2 8 8 11 23 4 14 5 28 3 31 -3 2
-8 -8 -11 -23z"/>
<path d="M2127 749 c7 -7 15 -10 18 -7 3 3 -2 9 -12 12 -14 6 -15 5 -6 -5z"/>
<path d="M1554 728 c1 -19 -4 -23 -24 -20 -23 2 -23 1 5 -11 25 -11 27 -14 12
-20 -11 -4 -16 -3 -12 3 3 6 2 10 -4 10 -5 0 -13 -4 -16 -10 -6 -10 7 -14 34
-11 7 2 10 -2 6 -8 -6 -10 8 -16 28 -12 5 1 6 -3 2 -8 -3 -6 -13 -8 -23 -5 -9
3 -3 -3 13 -12 38 -23 57 -24 60 -3 2 9 -3 16 -11 16 -7 0 -10 -5 -7 -10 3 -5
0 -7 -8 -5 -8 3 -13 15 -13 27 1 16 -2 19 -11 11 -9 -8 -14 -6 -18 4 -4 9 -2
18 3 21 4 3 7 13 5 23 -2 9 -4 23 -4 30 -2 22 -18 13 -17 -10z"/>
<path d="M1599 737 c6 -8 9 -17 6 -21 -3 -3 0 -2 6 3 12 10 4 31 -13 31 -7 0
-7 -4 1 -13z"/>
<path d="M1620 705 c0 -5 5 -17 10 -25 5 -8 10 -10 10 -5 0 6 -5 17 -10 25 -5
8 -10 11 -10 5z"/>
<path d="M2053 676 c0 -8 6 -17 13 -20 7 -3 11 2 10 12 -3 20 -23 27 -23 8z"/>
<path d="M2110 600 c0 -5 5 -10 11 -10 5 0 7 -5 3 -12 -4 -6 -3 -8 3 -5 6 4
23 -3 38 -14 21 -17 25 -27 20 -48 -4 -19 -3 -22 5 -11 16 25 12 38 -27 75
-39 36 -53 42 -53 25z"/>
<path d="M1636 591 c-8 -13 9 -27 33 -26 13 0 26 6 29 13 2 7 0 12 -5 11 -4
-1 -10 0 -13 1 -17 6 -41 7 -44 1z"/>
<path d="M2076 574 c-3 -9 -4 -19 -1 -22 3 -3 5 1 5 9 0 11 2 11 10 -1 5 -8
10 -10 10 -5 0 6 -4 16 -9 23 -6 11 -10 10 -15 -4z"/>
<path d="M1716 548 c3 -4 11 -5 19 -1 21 7 19 12 -4 10 -11 0 -18 -5 -15 -9z"/>
</g>
</svg>
